<svg width="43" height="43" viewBox="0 0 43 43" fill="none" xmlns="http://www.w3.org/2000/svg">
<path d="M43 21.4815C42.997 33.3285 33.5338 42.9432 21.8714 42.9523C10.179 42.9599 0.687215 33.3057 0.714291 21.4328C0.741368 9.5827 10.2196 -0.0152094 21.882 1.80943e-05C33.5458 0.0152456 43.0045 9.63447 43 21.4815ZM41.058 21.5272C41.0686 10.74 32.532 2.0268 21.9843 1.9598C11.3087 1.8928 2.63972 10.7324 2.65175 21.4236C2.66379 32.2108 11.1838 40.924 21.7315 40.991C32.4056 41.058 41.0941 32.2199 41.0595 21.5272H41.058Z" fill="#016956"/>
<path d="M23.7728 30.2466H19.9791V21.4847H18.0597V18.5762H19.9776C19.9776 17.7022 19.955 16.8982 19.9821 16.0957C20.0513 14.0811 21.1644 12.9223 23.1666 12.7852C24.2842 12.7076 25.4049 12.6771 26.5842 12.6208V15.6541C25.9961 15.6541 25.4079 15.6602 24.8198 15.6541C24.1398 15.6465 23.7954 15.9891 23.7833 16.6667C23.7728 17.2697 23.7818 17.8727 23.7818 18.5458H26.6429C26.5391 19.5615 26.4443 20.4949 26.3451 21.4695H23.7743V30.2481L23.7728 30.2466Z" fill="#016956"/>
</svg>
