<svg width="43" height="43" viewBox="0 0 43 43" fill="none" xmlns="http://www.w3.org/2000/svg">
<path d="M21.0985 42.9677C9.43611 42.9418 -0.0120224 33.3119 1.14828e-05 21.4634C0.0135496 9.58132 9.52937 -0.0455207 21.2158 0.000161914C32.8647 0.0458445 42.3218 9.71837 42.2827 21.5471C42.2436 33.4017 32.7594 42.992 21.1 42.9662L21.0985 42.9677ZM21.7453 41.5302C33.2603 41.113 41.9382 30.9425 40.7619 19.3848C39.6789 8.73619 30.2894 0.44176 19.1821 1.53357C8.74567 2.56143 0.359525 12.0847 1.52381 23.5785C2.56925 33.8921 11.2788 41.821 21.7453 41.5302Z" fill="#016956"/>
<path d="M30.8595 21.4755C30.8595 23.7307 30.8625 25.9844 30.8595 28.2396C30.8565 30.239 29.7795 31.3582 27.8134 31.3628C23.3609 31.3749 18.9083 31.3749 14.4558 31.3628C12.5168 31.3567 11.4262 30.2359 11.4247 28.2838C11.4202 23.7551 11.4202 19.2264 11.4247 14.6993C11.4262 12.738 12.5078 11.6127 14.4422 11.6066C18.9144 11.5913 23.3865 11.5898 27.8586 11.6066C29.7885 11.6142 30.858 12.7441 30.8625 14.713C30.8671 16.9682 30.8625 19.2219 30.8625 21.4771L30.8595 21.4755ZM21.1391 30.2466C23.385 30.2466 25.6323 30.2481 27.8781 30.2466C29.1447 30.2451 29.7599 29.6497 29.7629 28.3675C29.7735 23.7795 29.7735 19.1914 29.7629 14.6018C29.7599 13.3181 29.1462 12.7212 27.8811 12.7197C23.388 12.7167 18.8963 12.7167 14.4031 12.7197C13.1366 12.7197 12.5213 13.3166 12.5183 14.5988C12.5078 19.1868 12.5078 23.7749 12.5183 28.3645C12.5213 29.6481 13.1351 30.2435 14.4001 30.2466C16.646 30.2496 18.8933 30.2466 21.1391 30.2466Z" fill="#016956"/>
<path d="M26.5168 21.4695C26.5288 24.4815 24.1356 26.9575 21.1978 26.9712C18.1998 26.9849 15.7916 24.5728 15.7645 21.5273C15.7374 18.4909 18.1442 15.9997 21.1105 15.9952C24.098 15.9891 26.5048 18.427 26.5168 21.4695ZM21.1451 25.8641C23.5128 25.8596 25.4593 23.8876 25.4623 21.4923C25.4653 19.0894 23.5429 17.125 21.1647 17.1022C18.782 17.0809 16.8114 19.0757 16.8189 21.5014C16.825 23.8982 18.779 25.8672 21.1451 25.8641Z" fill="#016956"/>
<path d="M28.6934 15.4576C28.6904 16.3545 27.9744 17.0793 27.0839 17.0824C26.1874 17.087 25.4743 16.3774 25.4653 15.4713C25.4563 14.547 26.1979 13.7887 27.0989 13.8039C27.9744 13.8191 28.6949 14.5668 28.6934 15.4561V15.4576ZM27.6841 15.549C27.6796 15.4622 27.6766 15.3739 27.672 15.2871C27.4554 15.1713 27.2238 14.946 27.0252 14.9734C26.8477 14.9977 26.5739 15.313 26.589 15.4774C26.6055 15.6601 26.8974 15.9495 27.0734 15.951C27.2749 15.954 27.4795 15.6936 27.6841 15.5475V15.549Z" fill="#016956"/>
</svg>
