<svg width="43" height="43" viewBox="0 0 43 43" fill="none" xmlns="http://www.w3.org/2000/svg">
<path d="M42.6339 21.4983C42.6204 33.3468 33.1512 42.9539 21.4918 42.9508C9.80236 42.9478 0.319622 33.2859 0.357228 21.4145C0.394834 9.56294 9.87757 -0.0258345 21.5369 5.22917e-05C33.1993 0.0259391 42.6475 9.65278 42.6339 21.4983ZM40.6919 21.5059C40.698 10.7263 32.1554 2.02074 21.6001 1.95983C10.9411 1.90045 2.27363 10.7415 2.29319 21.445C2.31274 32.2245 10.8358 40.9301 21.3895 40.991C32.0486 41.0519 40.7386 32.2108 40.6919 21.5074V21.5059Z" fill="#016956"/>
<path d="M31.4679 14.3186C31.0061 14.9124 30.5458 15.5063 30.0705 16.1185C30.6451 15.9738 31.2483 15.8231 31.85 15.6708C31.8786 15.7073 31.9057 15.7454 31.9343 15.7819C31.489 16.2509 31.0783 16.758 30.5895 17.1753C30.245 17.4676 30.1352 17.763 30.1277 18.2062C30.0419 23.8449 25.9459 28.5365 20.4223 29.1989C17.8922 29.5035 15.4342 29.1152 13.1749 27.6807C14.1346 27.533 15.0762 27.4858 15.9562 27.2239C16.8467 26.9589 17.6756 26.4838 18.5134 26.0011C16.9009 25.6235 15.6824 24.8697 15.0476 23.2069C15.5395 23.1825 15.9728 23.1597 16.4045 23.1384C14.7408 22.3587 13.745 21.1283 13.6006 19.199C14.1316 19.3299 14.5738 19.4396 15.0161 19.5507C13.6743 18.0052 13.1899 16.3926 14.1722 14.3871C16.3624 16.8402 18.9752 18.2869 22.2274 18.4483C22.1236 15.9525 23.1359 14.381 25.1983 13.8222C26.3791 13.5024 27.5178 13.714 28.4595 14.4769C28.9784 14.8972 29.4071 14.9094 29.9487 14.6764C30.3834 14.4891 30.8286 14.3292 31.2694 14.1587L31.4679 14.3201V14.3186Z" fill="#016956"/>
</svg>
